<?xml version="1.0" standalone="no"?>
<!DOCTYPE svg PUBLIC "-//W3C//DTD SVG 20010904//EN"
 "http://www.w3.org/TR/2001/REC-SVG-20010904/DTD/svg10.dtd">
<svg version="1.0" xmlns="http://www.w3.org/2000/svg"
 width="400.000000pt" height="400.000000pt" viewBox="0 0 400.000000 400.000000"
 preserveAspectRatio="xMidYMid meet">
<metadata>
Created by potrace 1.14, written by Peter Selinger 2001-2017
</metadata>
<g transform="translate(0.000000,400.000000) scale(0.100000,-0.100000)"
fill="#000000" stroke="none">
<path d="M0 2000 l0 -2000 2000 0 2000 0 0 2000 0 2000 -2000 0 -2000 0 0
-2000z m2820 1779 c0 -4 -9 -5 -20 -2 -20 5 -26 23 -13 37 7 7 33 -21 33 -35z
m190 -150 c0 -5 -4 -9 -10 -9 -5 0 -10 7 -10 16 0 8 5 12 10 9 6 -3 10 -10 10
-16z m-130 -104 c0 -8 -4 -15 -9 -15 -13 0 -22 16 -14 24 11 11 23 6 23 -9z
m-155 -155 c3 -5 1 -10 -4 -10 -6 0 -11 5 -11 10 0 6 2 10 4 10 3 0 8 -4 11
-10z m215 -65 c0 -8 -4 -15 -10 -15 -5 0 -10 7 -10 15 0 8 5 15 10 15 6 0 10
-7 10 -15z m-409 -178 c6 -22 1 -37 -26 -78 -59 -86 -85 -142 -94 -198 -5 -29
-7 -61 -6 -70 1 -9 0 -10 -2 -3 -3 6 -11 12 -19 12 -8 0 -14 9 -14 21 0 11 5
17 10 14 6 -3 10 -1 10 5 0 19 -25 5 -28 -16 -2 -10 -8 -23 -13 -28 -5 -5 -5
6 0 25 15 57 21 105 13 92 -6 -10 -13 -9 -30 3 -21 14 -21 16 -6 47 21 42 69
108 118 164 45 51 75 54 87 10z m261 1 c6 -34 -34 -106 -90 -165 -48 -51 -70
-67 -57 -40 4 6 0 4 -8 -6 -9 -10 -15 -37 -15 -60 0 -23 -5 -55 -11 -70 -11
-27 -11 -28 -38 -10 -19 13 -28 14 -31 5 -2 -6 -7 -12 -11 -12 -5 0 3 23 17
51 21 42 23 54 14 70 -27 42 -15 65 85 163 102 100 138 118 145 74z m-642
-219 c0 -5 -4 -9 -10 -9 -5 0 -10 7 -10 16 0 8 5 12 10 9 6 -3 10 -10 10 -16z
m334 -210 c-24 -27 -28 -17 -7 20 13 21 19 26 21 15 2 -8 -4 -24 -14 -35z
m114 19 c-15 -22 -47 -41 -34 -19 4 6 1 11 -6 12 -7 0 1 7 17 14 40 18 40 18
23 -7z m-277 -29 c-6 -16 -10 -18 -10 -7 -1 22 12 55 16 42 2 -6 -1 -22 -6
-35z m100 -74 c5 4 9 4 9 2 0 -10 -70 -160 -70 -150 0 6 9 32 20 58 11 26 21
72 22 103 1 43 2 48 5 19 2 -20 8 -35 14 -32z m149 45 c0 -5 -2 -10 -4 -10 -3
0 -8 5 -11 10 -3 6 -1 10 4 10 6 0 11 -4 11 -10z m-260 -138 c-9 -14 -10 -11
-6 17 3 18 7 54 8 80 2 38 2 35 5 -17 2 -35 -1 -70 -7 -80z m240 58 l-11 -25
6 25 c2 14 5 34 6 45 2 19 2 19 6 0 2 -12 -1 -32 -7 -45z m-480 32 c0 -13 -12
-22 -22 -16 -10 6 -1 24 13 24 5 0 9 -4 9 -8z m461 -103 c-5 -13 -10 -19 -10
-12 -1 15 10 45 15 40 3 -2 0 -15 -5 -28z m429 -19 c0 -5 -5 -10 -11 -10 -5 0
-7 5 -4 10 3 6 8 10 11 10 2 0 4 -4 4 -10z m-653 -32 c-3 -8 -6 -5 -6 6 -1 11
2 17 5 13 3 -3 4 -12 1 -19z m196 -33 c-3 -9 -8 -14 -10 -11 -3 3 -2 9 2 15 9
16 15 13 8 -4z m-206 -130 c-26 -42 -47 -78 -47 -80 0 -3 -16 -27 -35 -54 -19
-26 -35 -51 -35 -54 0 -3 -10 -17 -22 -30 -13 -14 -31 -35 -41 -48 -17 -24
-17 -23 -2 8 14 29 14 32 0 26 -9 -3 -14 -8 -11 -10 7 -7 -20 -33 -33 -33 -6
0 -14 11 -17 26 -7 28 21 66 66 89 26 13 54 10 44 -6 -3 -5 0 -9 5 -9 6 0 19
15 28 34 10 19 34 65 54 102 34 66 79 127 88 118 2 -2 -17 -38 -42 -79z m188
-8 c-25 -43 -33 -87 -16 -87 4 0 20 9 33 20 14 10 28 17 31 14 7 -7 -24 -86
-42 -104 -23 -23 -41 -77 -41 -120 0 -47 -10 -50 -40 -13 -15 20 -19 34 -14
53 3 14 14 63 24 110 17 86 30 121 58 153 28 32 33 17 7 -26z m22 -19 c-3 -8
-6 -5 -6 6 -1 11 2 17 5 13 3 -3 4 -12 1 -19z m-807 -118 c0 -5 -4 -10 -10
-10 -5 0 -10 5 -10 10 0 6 5 10 10 10 6 0 10 -4 10 -10z m690 -47 c-11 -17
-11 -17 -6 0 3 10 6 24 7 30 0 9 2 9 5 0 3 -7 0 -20 -6 -30z m-152 -55 c-3 -7
-13 -15 -24 -17 -16 -3 -17 -1 -5 13 16 19 34 21 29 4z m-189 -51 c-4 -41 8
-62 26 -47 9 8 14 7 18 -4 4 -10 19 -13 54 -11 l48 4 -57 -11 c-44 -9 -58 -15
-58 -28 0 -10 -9 -29 -20 -43 -30 -38 -82 -154 -78 -173 2 -12 9 -5 23 22 30
58 101 168 118 183 26 21 11 -54 -18 -97 -14 -20 -25 -44 -25 -52 0 -9 -4 -20
-10 -26 -20 -20 -88 -172 -118 -264 -31 -98 -48 -205 -29 -193 7 4 8 -1 3 -12
-5 -15 -4 -16 9 -5 12 10 20 7 44 -19 26 -28 51 -40 51 -25 0 3 -11 19 -25 35
-35 42 -40 87 -20 171 15 66 44 146 45 124 0 -5 8 -2 17 5 14 12 16 12 9 -1
-4 -8 1 -4 11 10 10 14 30 37 44 53 15 15 44 48 65 72 21 25 43 44 49 42 5 -3
11 9 12 25 2 29 30 87 48 100 5 4 7 10 3 13 -3 4 1 15 10 25 10 10 27 30 39
44 21 26 21 26 2 36 -16 9 -21 7 -29 -15 -6 -15 -10 -33 -10 -41 0 -8 -7 -17
-15 -20 -8 -4 -15 -13 -15 -21 0 -8 -4 -11 -10 -8 -5 3 -10 1 -10 -5 0 -6 -12
-29 -27 -53 -15 -23 -39 -64 -55 -92 -15 -27 -28 -44 -28 -37 0 19 29 75 90
175 52 85 53 88 35 107 -11 12 -13 20 -6 20 6 0 14 -7 17 -15 5 -12 12 -10 38
11 26 23 32 24 34 10 2 -9 17 -23 34 -32 25 -13 32 -14 39 -2 15 23 10 -8 -7
-52 -9 -22 -14 -47 -10 -55 3 -9 0 -15 -10 -15 -8 0 -27 -26 -43 -62 -33 -73
-101 -283 -101 -314 0 -24 -49 -121 -90 -176 -28 -40 -85 -83 -117 -90 -10 -2
-17 -10 -15 -17 2 -8 -4 -10 -17 -6 -11 3 -22 1 -26 -5 -3 -5 -17 -10 -30 -10
-25 0 -31 -11 -37 -70 -2 -14 -16 -33 -35 -46 -18 -12 -30 -24 -27 -27 3 -3
-4 -3 -15 0 -13 3 -29 -2 -42 -12 -19 -18 -20 -18 -47 8 -25 24 -31 26 -58 15
-44 -16 -77 -4 -106 41 -56 86 -59 147 -11 229 44 74 136 102 220 67 20 -8 39
-13 41 -10 9 9 63 195 78 270 37 183 57 262 75 287 10 15 19 34 19 42 0 8 4
17 9 20 4 3 11 24 15 46 8 48 19 54 15 7z m-235 -28 c-3 -5 -10 -7 -15 -3 -5
3 -7 10 -3 15 3 5 10 7 15 3 5 -3 7 -10 3 -15z m-244 -119 c0 -5 -4 -10 -10
-10 -5 0 -10 5 -10 10 0 6 5 10 10 10 6 0 10 -4 10 -10z m1020 0 c0 -5 -4 -10
-10 -10 -5 0 -10 5 -10 10 0 6 5 10 10 10 6 0 10 -4 10 -10z m-1125 -320 c3
-5 1 -10 -4 -10 -6 0 -11 5 -11 10 0 6 2 10 4 10 3 0 8 -4 11 -10z m925 -10
c0 -5 -2 -10 -4 -10 -3 0 -8 5 -11 10 -3 6 -1 10 4 10 6 0 11 -4 11 -10z m200
-111 c0 -6 -4 -7 -10 -4 -5 3 -10 11 -10 16 0 6 5 7 10 4 6 -3 10 -11 10 -16z
m-140 -14 c0 -8 -4 -15 -10 -15 -5 0 -10 7 -10 15 0 8 5 15 10 15 6 0 10 -7
10 -15z m-1130 -65 c0 -5 -4 -10 -10 -10 -5 0 -10 5 -10 10 0 6 5 10 10 10 6
0 10 -4 10 -10z m826 -157 c-10 -10 -19 5 -10 18 6 11 8 11 12 0 2 -7 1 -15
-2 -18z m54 -23 c0 -5 -2 -10 -4 -10 -3 0 -8 5 -11 10 -3 6 -1 10 4 10 6 0 11
-4 11 -10z m-755 -130 c3 -5 1 -10 -4 -10 -6 0 -11 5 -11 10 0 6 2 10 4 10 3
0 8 -4 11 -10z m363 -118 c2 -7 -6 -12 -17 -12 -21 0 -27 11 -14 24 9 9 26 2
31 -12z m-866 -47 c0 -5 -5 -11 -11 -13 -6 -2 -11 4 -11 13 0 9 5 15 11 13 6
-2 11 -8 11 -13z m988 -5 c0 -5 -4 -10 -10 -10 -5 0 -10 5 -10 10 0 6 5 10 10
10 6 0 10 -4 10 -10z m-350 -10 c0 -5 -5 -10 -11 -10 -5 0 -7 5 -4 10 3 6 8
10 11 10 2 0 4 -4 4 -10z m450 -40 c0 -5 -4 -10 -10 -10 -5 0 -10 5 -10 10 0
6 5 10 10 10 6 0 10 -4 10 -10z m-700 -122 c0 -19 -2 -20 -10 -8 -13 19 -13
30 0 30 6 0 10 -10 10 -22z m419 -10 c6 -15 15 -28 20 -28 6 0 8 7 5 15 -4 8
-2 15 4 15 6 0 18 3 26 6 12 5 16 1 14 -17 -3 -20 1 -23 20 -21 19 3 22 -1 22
-33 0 -35 -21 -71 -34 -58 -3 4 -6 -1 -6 -10 0 -9 7 -17 15 -17 8 0 15 -4 15
-10 0 -5 -7 -10 -15 -10 -8 0 -15 -4 -15 -10 0 -5 -7 -10 -15 -10 -8 0 -15 -4
-15 -9 0 -12 90 -23 128 -15 18 4 32 11 32 17 0 7 4 7 12 -1 15 -15 88 -16 88
-1 0 6 -13 23 -29 38 l-29 27 34 -3 c19 -1 32 2 29 6 -2 5 4 11 16 14 22 6 30
-6 33 -48 1 -24 16 -37 16 -13 0 25 15 -5 16 -34 1 -21 -1 -27 -9 -19 -13 13
-47 15 -47 2 0 -5 -6 -8 -12 -8 -7 1 -30 -3 -51 -7 -28 -6 -37 -12 -32 -24 4
-12 3 -13 -10 -2 -11 9 -42 11 -106 8 -95 -4 -109 -11 -109 -55 0 -16 -4 -21
-15 -17 -9 4 -15 0 -15 -7 0 -11 -2 -11 -9 1 -6 8 -7 18 -5 22 3 5 0 7 -8 6
-8 -2 -12 5 -11 19 2 14 -4 24 -17 28 -26 8 -81 4 -97 -8 -14 -10 -36 0 -28
13 3 4 -7 11 -22 15 -26 6 -29 4 -53 -35 -8 -13 -14 -12 -46 5 -21 11 -41 19
-45 18 -4 -1 -5 7 -2 17 7 25 -4 25 -46 -1 l-34 -21 -22 24 c-30 32 -39 72
-20 88 10 9 15 32 15 73 0 56 1 59 15 41 9 -12 14 -14 15 -5 0 7 6 11 15 7 10
-3 17 3 21 19 8 31 42 33 67 5 9 -11 22 -20 29 -20 10 0 10 2 0 8 -9 6 0 12
27 21 47 14 95 5 87 -15 -3 -9 1 -14 11 -14 14 0 14 -2 -3 -16 -12 -10 -14
-14 -4 -11 8 2 19 13 24 24 l10 21 19 -22 c10 -11 16 -15 12 -8 -5 10 0 11 22
6 27 -6 27 -6 8 9 -11 8 -17 19 -12 23 4 4 7 2 7 -4 0 -9 5 -9 20 0 11 7 20
18 20 25 0 7 11 12 25 11 17 -2 28 -11 34 -30z m-479 -92 c0 -2 -8 -10 -17
-17 -16 -13 -17 -12 -4 4 13 16 21 21 21 13z m685 -86 l-19 -21 -18 23 c-22
28 -22 35 -3 35 8 0 17 -9 21 -19 3 -10 10 -16 15 -13 5 4 5 15 -2 28 -11 21
-10 21 7 5 17 -17 17 -18 -1 -38z m236 13 c13 -16 12 -17 -3 -4 -10 7 -18 15
-18 17 0 8 8 3 21 -13z m-28 -33 c-7 -28 -13 -25 -13 6 0 14 4 23 9 20 5 -3 7
-15 4 -26z"/>
<path d="M2016 1903 c-3 -3 -3 -10 0 -14 7 -12 34 -11 34 0 0 11 -26 22 -34
14z"/>
<path d="M1947 1583 c-2 -4 -7 -21 -10 -38 -6 -30 -6 -30 9 4 8 18 13 35 11
38 -3 2 -7 1 -10 -4z"/>
<path d="M2195 1510 c-9 -16 -13 -30 -11 -30 3 0 12 14 21 30 9 17 13 30 11
30 -3 0 -12 -13 -21 -30z"/>
<path d="M2166 1453 c-6 -14 -5 -15 5 -6 7 7 10 15 7 18 -3 3 -9 -2 -12 -12z"/>
<path d="M2140 1410 c-6 -11 -8 -20 -6 -20 3 0 10 9 16 20 6 11 8 20 6 20 -3
0 -10 -9 -16 -20z"/>
<path d="M1993 1294 c-3 -8 -2 -19 3 -24 5 -5 10 1 10 16 2 27 -4 31 -13 8z"/>
<path d="M1880 1238 c0 -7 11 -21 24 -30 l24 -18 -15 30 c-15 31 -33 40 -33
18z"/>
<path d="M1844 1138 l-19 -23 23 19 c21 18 27 26 19 26 -2 0 -12 -10 -23 -22z"/>
<path d="M1742 1113 c-12 -5 -37 -43 -28 -43 2 0 12 7 21 16 9 10 29 17 45 18
15 1 26 4 23 9 -5 8 -41 8 -61 0z"/>
<path d="M1770 1095 c0 -13 20 -35 32 -35 4 0 8 7 8 16 0 8 -5 12 -11 8 -6 -3
-15 0 -20 7 -5 8 -9 9 -9 4z"/>
<path d="M1750 1055 c0 -8 2 -15 4 -15 2 0 6 7 10 15 3 8 1 15 -4 15 -6 0 -10
-7 -10 -15z"/>
<path d="M1727 650 c10 -11 19 -20 21 -20 1 0 -2 9 -8 20 -6 11 -15 20 -20 20
-6 0 -2 -9 7 -20z"/>
<path d="M1685 650 c3 -5 8 -10 11 -10 2 0 4 5 4 10 0 6 -5 10 -11 10 -5 0 -7
-4 -4 -10z"/>
<path d="M1448 610 c-16 -25 -50 -28 -41 -2 3 9 2 13 -3 9 -10 -10 -14 -77 -4
-77 4 0 15 9 25 20 10 11 26 22 36 25 11 4 19 15 19 26 0 25 -16 24 -32 -1z"/>
<path d="M1701 553 c13 -16 25 -30 27 -32 1 -2 4 -2 7 1 9 9 -7 38 -21 38 -8
0 -14 5 -14 10 0 6 -5 10 -12 10 -6 0 -1 -12 13 -27z"/>
<path d="M1715 497 c10 -15 20 -25 23 -22 3 3 -5 16 -17 28 l-23 22 17 -28z"/>
<path d="M1400 477 c0 -19 16 -31 24 -18 3 5 -1 14 -9 21 -12 10 -15 10 -15
-3z"/>
</g>
</svg>
